<svg width="33" height="42" viewBox="0 0 33 42" fill="none" xmlns="http://www.w3.org/2000/svg">
<path d="M32.0254 15.7909C32.0254 22.979 22.2754 35.7762 18.0004 41.0562C16.9754 42.3146 15.0754 42.3146 14.0504 41.0562C9.70039 35.7762 0.0253906 22.979 0.0253906 15.7909C0.0253906 7.0697 7.18872 0 16.0254 0C24.8587 0 32.0254 7.0697 32.0254 15.7909Z" fill="#542BA8"/>
<path d="M32.0254 15.7909C32.0254 22.979 22.2754 35.7762 18.0004 41.0562C16.9754 42.3146 15.0754 42.3146 14.0504 41.0562C9.70039 35.7762 0.0253906 22.979 0.0253906 15.7909C0.0253906 7.0697 7.18872 0 16.0254 0C24.8587 0 32.0254 7.0697 32.0254 15.7909Z" fill="black" fill-opacity="0.2"/>
<path d="M32.0254 15.7909C32.0254 22.979 22.2754 35.7762 18.0004 41.0562C16.9754 42.3146 15.0754 42.3146 14.0504 41.0562C9.70039 35.7762 0.0253906 22.979 0.0253906 15.7909C0.0253906 7.0697 7.18872 0 16.0254 0C24.8587 0 32.0254 7.0697 32.0254 15.7909Z" fill="black" fill-opacity="0.2"/>
<path d="M32.0254 15.7909C32.0254 22.979 22.2754 35.7762 18.0004 41.0562C16.9754 42.3146 15.0754 42.3146 14.0504 41.0562C9.70039 35.7762 0.0253906 22.979 0.0253906 15.7909C0.0253906 7.0697 7.18872 0 16.0254 0C24.8587 0 32.0254 7.0697 32.0254 15.7909Z" fill="black" fill-opacity="0.2"/>
<circle cx="16.0254" cy="16" r="6" fill="white"/>
</svg>
