<svg width="19" height="24" viewBox="0 0 19 24" fill="none" xmlns="http://www.w3.org/2000/svg">
<path d="M18.0254 9.02335C18.0254 13.1309 12.541 20.4435 10.1363 23.4607C9.55977 24.1798 8.49102 24.1798 7.91445 23.4607C5.46758 20.4435 0.0253906 13.1309 0.0253906 9.02335C0.0253906 4.03983 4.05477 0 9.02539 0C13.9941 0 18.0254 4.03983 18.0254 9.02335Z" fill="#542BA8"/>
<path d="M18.0254 9.02335C18.0254 13.1309 12.541 20.4435 10.1363 23.4607C9.55977 24.1798 8.49102 24.1798 7.91445 23.4607C5.46758 20.4435 0.0253906 13.1309 0.0253906 9.02335C0.0253906 4.03983 4.05477 0 9.02539 0C13.9941 0 18.0254 4.03983 18.0254 9.02335Z" fill="black" fill-opacity="0.2"/>
<path d="M18.0254 9.02335C18.0254 13.1309 12.541 20.4435 10.1363 23.4607C9.55977 24.1798 8.49102 24.1798 7.91445 23.4607C5.46758 20.4435 0.0253906 13.1309 0.0253906 9.02335C0.0253906 4.03983 4.05477 0 9.02539 0C13.9941 0 18.0254 4.03983 18.0254 9.02335Z" fill="black" fill-opacity="0.2"/>
<path d="M18.0254 9.02335C18.0254 13.1309 12.541 20.4435 10.1363 23.4607C9.55977 24.1798 8.49102 24.1798 7.91445 23.4607C5.46758 20.4435 0.0253906 13.1309 0.0253906 9.02335C0.0253906 4.03983 4.05477 0 9.02539 0C13.9941 0 18.0254 4.03983 18.0254 9.02335Z" fill="black" fill-opacity="0.2"/>
<circle cx="9.02539" cy="9" r="3" fill="white"/>
</svg>
