<svg width="16" height="16" viewBox="0 0 16 16" fill="none" xmlns="http://www.w3.org/2000/svg">
<mask id="mask0_4148_4701" style="mask-type:alpha" maskUnits="userSpaceOnUse" x="3" y="0" width="10" height="16">
<path fill-rule="evenodd" clip-rule="evenodd" d="M12.3654 0.626866C12.7668 1.01738 12.7668 1.65052 12.3654 2.04102L6.24044 8.00035L12.3654 13.9597C12.7668 14.3502 12.7668 14.9833 12.3654 15.3738C11.9641 15.7643 11.3133 15.7643 10.912 15.3738L3.3335 8.00035L10.912 0.626866C11.3133 0.236357 11.9641 0.236357 12.3654 0.626866Z" fill="#542BA8"/>
<path fill-rule="evenodd" clip-rule="evenodd" d="M12.3654 0.626866C12.7668 1.01738 12.7668 1.65052 12.3654 2.04102L6.24044 8.00035L12.3654 13.9597C12.7668 14.3502 12.7668 14.9833 12.3654 15.3738C11.9641 15.7643 11.3133 15.7643 10.912 15.3738L3.3335 8.00035L10.912 0.626866C11.3133 0.236357 11.9641 0.236357 12.3654 0.626866Z" fill="black" fill-opacity="0.2"/>
<path fill-rule="evenodd" clip-rule="evenodd" d="M12.3654 0.626866C12.7668 1.01738 12.7668 1.65052 12.3654 2.04102L6.24044 8.00035L12.3654 13.9597C12.7668 14.3502 12.7668 14.9833 12.3654 15.3738C11.9641 15.7643 11.3133 15.7643 10.912 15.3738L3.3335 8.00035L10.912 0.626866C11.3133 0.236357 11.9641 0.236357 12.3654 0.626866Z" fill="black" fill-opacity="0.2"/>
<path fill-rule="evenodd" clip-rule="evenodd" d="M12.3654 0.626866C12.7668 1.01738 12.7668 1.65052 12.3654 2.04102L6.24044 8.00035L12.3654 13.9597C12.7668 14.3502 12.7668 14.9833 12.3654 15.3738C11.9641 15.7643 11.3133 15.7643 10.912 15.3738L3.3335 8.00035L10.912 0.626866C11.3133 0.236357 11.9641 0.236357 12.3654 0.626866Z" fill="black" fill-opacity="0.2"/>
</mask>
<g mask="url(#mask0_4148_4701)">
<rect x="0.000366211" y="-0.00195312" width="15.9994" height="15.9994" fill="#542BA8"/>
<rect x="0.000366211" y="-0.00195312" width="15.9994" height="15.9994" fill="black" fill-opacity="0.2"/>
<rect x="0.000366211" y="-0.00195312" width="15.9994" height="15.9994" fill="black" fill-opacity="0.2"/>
<rect x="0.000366211" y="-0.00195312" width="15.9994" height="15.9994" fill="black" fill-opacity="0.2"/>
</g>
</svg>
