<svg width="18" height="25" viewBox="0 0 18 25" fill="none" xmlns="http://www.w3.org/2000/svg">
<path d="M18 9.52335C18 13.6309 12.5156 20.9435 10.1109 23.9607C9.53438 24.6798 8.46562 24.6798 7.88906 23.9607C5.44219 20.9435 0 13.6309 0 9.52335C0 4.53983 4.02938 0.5 9 0.5C13.9688 0.5 18 4.53983 18 9.52335Z" fill="#542BA8"/>
<path d="M18 9.52335C18 13.6309 12.5156 20.9435 10.1109 23.9607C9.53438 24.6798 8.46562 24.6798 7.88906 23.9607C5.44219 20.9435 0 13.6309 0 9.52335C0 4.53983 4.02938 0.5 9 0.5C13.9688 0.5 18 4.53983 18 9.52335Z" fill="black" fill-opacity="0.2"/>
<path d="M18 9.52335C18 13.6309 12.5156 20.9435 10.1109 23.9607C9.53438 24.6798 8.46562 24.6798 7.88906 23.9607C5.44219 20.9435 0 13.6309 0 9.52335C0 4.53983 4.02938 0.5 9 0.5C13.9688 0.5 18 4.53983 18 9.52335Z" fill="black" fill-opacity="0.2"/>
<path d="M18 9.52335C18 13.6309 12.5156 20.9435 10.1109 23.9607C9.53438 24.6798 8.46562 24.6798 7.88906 23.9607C5.44219 20.9435 0 13.6309 0 9.52335C0 4.53983 4.02938 0.5 9 0.5C13.9688 0.5 18 4.53983 18 9.52335Z" fill="black" fill-opacity="0.2"/>
<circle cx="9" cy="9.5" r="3" fill="white"/>
</svg>
