<svg width="16" height="16" viewBox="0 0 16 16" fill="none" xmlns="http://www.w3.org/2000/svg">
<mask id="mask0_3820_3926" style="mask-type:alpha" maskUnits="userSpaceOnUse" x="0" y="0" width="16" height="16">
<path fill-rule="evenodd" clip-rule="evenodd" d="M6.42692 0.333984C3.06409 0.333984 0.333252 3.03838 0.333252 6.38021C0.333252 9.72204 3.06409 12.4264 6.42692 12.4264C7.68067 12.4264 8.84691 12.0504 9.8162 11.4056L13.7916 15.3483C14.2205 15.7737 14.9148 15.7737 15.3437 15.3483C15.7742 14.9214 15.7742 14.228 15.3437 13.8011L11.3938 9.88377C12.1031 8.89552 12.5206 7.68596 12.5206 6.38021C12.5206 3.03838 9.78976 0.333984 6.42692 0.333984ZM2.53109 6.38021C2.53109 4.25043 4.27271 2.51921 6.42692 2.51921C8.58114 2.51921 10.3228 4.25043 10.3228 6.38021C10.3228 8.50999 8.58114 10.2412 6.42692 10.2412C4.27271 10.2412 2.53109 8.50999 2.53109 6.38021Z" fill="#542BA8"/>
<path fill-rule="evenodd" clip-rule="evenodd" d="M6.42692 0.333984C3.06409 0.333984 0.333252 3.03838 0.333252 6.38021C0.333252 9.72204 3.06409 12.4264 6.42692 12.4264C7.68067 12.4264 8.84691 12.0504 9.8162 11.4056L13.7916 15.3483C14.2205 15.7737 14.9148 15.7737 15.3437 15.3483C15.7742 14.9214 15.7742 14.228 15.3437 13.8011L11.3938 9.88377C12.1031 8.89552 12.5206 7.68596 12.5206 6.38021C12.5206 3.03838 9.78976 0.333984 6.42692 0.333984ZM2.53109 6.38021C2.53109 4.25043 4.27271 2.51921 6.42692 2.51921C8.58114 2.51921 10.3228 4.25043 10.3228 6.38021C10.3228 8.50999 8.58114 10.2412 6.42692 10.2412C4.27271 10.2412 2.53109 8.50999 2.53109 6.38021Z" fill="black" fill-opacity="0.2"/>
<path fill-rule="evenodd" clip-rule="evenodd" d="M6.42692 0.333984C3.06409 0.333984 0.333252 3.03838 0.333252 6.38021C0.333252 9.72204 3.06409 12.4264 6.42692 12.4264C7.68067 12.4264 8.84691 12.0504 9.8162 11.4056L13.7916 15.3483C14.2205 15.7737 14.9148 15.7737 15.3437 15.3483C15.7742 14.9214 15.7742 14.228 15.3437 13.8011L11.3938 9.88377C12.1031 8.89552 12.5206 7.68596 12.5206 6.38021C12.5206 3.03838 9.78976 0.333984 6.42692 0.333984ZM2.53109 6.38021C2.53109 4.25043 4.27271 2.51921 6.42692 2.51921C8.58114 2.51921 10.3228 4.25043 10.3228 6.38021C10.3228 8.50999 8.58114 10.2412 6.42692 10.2412C4.27271 10.2412 2.53109 8.50999 2.53109 6.38021Z" fill="black" fill-opacity="0.2"/>
<path fill-rule="evenodd" clip-rule="evenodd" d="M6.42692 0.333984C3.06409 0.333984 0.333252 3.03838 0.333252 6.38021C0.333252 9.72204 3.06409 12.4264 6.42692 12.4264C7.68067 12.4264 8.84691 12.0504 9.8162 11.4056L13.7916 15.3483C14.2205 15.7737 14.9148 15.7737 15.3437 15.3483C15.7742 14.9214 15.7742 14.228 15.3437 13.8011L11.3938 9.88377C12.1031 8.89552 12.5206 7.68596 12.5206 6.38021C12.5206 3.03838 9.78976 0.333984 6.42692 0.333984ZM2.53109 6.38021C2.53109 4.25043 4.27271 2.51921 6.42692 2.51921C8.58114 2.51921 10.3228 4.25043 10.3228 6.38021C10.3228 8.50999 8.58114 10.2412 6.42692 10.2412C4.27271 10.2412 2.53109 8.50999 2.53109 6.38021Z" fill="black" fill-opacity="0.2"/>
</mask>
<g mask="url(#mask0_3820_3926)">
<rect width="16" height="16" fill="#342961"/>
</g>
</svg>
